<?xml version="1.0" encoding="UTF-8"?>
<!DOCTYPE svg PUBLIC "-//W3C//DTD SVG 1.1//EN" "http://www.w3.org/Graphics/SVG/1.1/DTD/svg11.dtd">
<!-- Creator: CorelDRAW X8 -->
<svg xmlns="http://www.w3.org/2000/svg" xml:space="preserve" width="21.1666mm" height="21.1666mm" version="1.1" style="shape-rendering:geometricPrecision; text-rendering:geometricPrecision; image-rendering:optimizeQuality; fill-rule:evenodd; clip-rule:evenodd"
viewBox="0 0 2117 2117"
 xmlns:xlink="http://www.w3.org/1999/xlink">
 <defs>
  <style type="text/css">
   <![CDATA[
    .fil0 {fill:#333537;fill-rule:nonzero}
   ]]>
  </style>
 </defs>
 <g id="Camada_x0020_1">
  <metadata id="CorelCorpID_0Corel-Layer"/>
  <g id="_645728928">
   <path class="fil0" d="M1343 1037l19 0c0,-162 -132,-295 -295,-295 -163,0 -295,133 -295,295 0,163 132,295 295,295 163,0 295,-132 295,-295l-39 0c0,71 -28,135 -75,182 -46,46 -110,75 -181,75 -71,0 -135,-29 -182,-75 -46,-47 -75,-111 -75,-182 0,-70 29,-134 75,-181 47,-46 111,-75 182,-75 71,0 135,29 181,75 47,47 75,111 75,181l20 0z"/>
   <path class="fil0" d="M1484 643l0 -19 -121 0 -109 -117 0 0c-29,-30 -68,-47 -110,-47l-155 0c-41,0 -81,17 -109,47l-110 117 -120 0c-98,0 -177,79 -177,177l0 526c0,98 79,177 177,177l834 0c98,0 177,-79 177,-177l0 -526c0,-98 -79,-177 -177,-177l0 38c38,0 73,16 98,41 25,25 41,60 41,98l0 526c0,38 -16,73 -41,98 -25,25 -60,41 -98,41l-834 0c-38,0 -73,-16 -98,-41 -25,-25 -41,-60 -41,-98l0 -526c0,-38 16,-73 41,-98 25,-25 60,-41 98,-41l137 0 121 -128c21,-23 50,-36 81,-36l155 0c31,0 61,13 82,36l0 0 121 128 137 0 0 -19z"/>
  </g>
 </g>
</svg>
