<?xml version="1.0" encoding="UTF-8"?>
<!DOCTYPE svg PUBLIC "-//W3C//DTD SVG 1.1//EN" "http://www.w3.org/Graphics/SVG/1.1/DTD/svg11.dtd">
<!-- Creator: CorelDRAW X8 -->
<svg xmlns="http://www.w3.org/2000/svg" xml:space="preserve" width="21.1666mm" height="21.1666mm" version="1.1" style="shape-rendering:geometricPrecision; text-rendering:geometricPrecision; image-rendering:optimizeQuality; fill-rule:evenodd; clip-rule:evenodd"
viewBox="0 0 2117 2117"
 xmlns:xlink="http://www.w3.org/1999/xlink">
 <defs>
  <style type="text/css">
   <![CDATA[
    .fil0 {fill:#333537;fill-rule:nonzero}
   ]]>
  </style>
 </defs>
 <g id="Camada_x0020_1">
  <metadata id="CorelCorpID_0Corel-Layer"/>
  <path class="fil0" d="M1382 1238l14 9c43,-66 69,-146 69,-231 0,-234 -190,-423 -424,-423 -233,0 -423,189 -423,423 0,234 190,423 423,423 88,0 170,-27 238,-73l-9 -13 -5 16 193 54 -60 -190 -16 5 14 9 -14 -9 -15 5 42 133 -142 -41 -6 5c-63,42 -138,67 -220,67 -108,0 -205,-44 -276,-115 -71,-70 -115,-168 -115,-276 0,-108 44,-206 115,-276 71,-71 168,-115 276,-115 108,0 206,44 277,115 71,70 114,168 114,276 0,79 -23,152 -63,213l-5 7 3 7 15 -5z"/>
 </g>
</svg>
