<?xml version="1.0" encoding="UTF-8"?>
<!DOCTYPE svg PUBLIC "-//W3C//DTD SVG 1.1//EN" "http://www.w3.org/Graphics/SVG/1.1/DTD/svg11.dtd">
<!-- Creator: CorelDRAW X8 -->
<svg xmlns="http://www.w3.org/2000/svg" xml:space="preserve" width="6.7732mm" height="6.7732mm" version="1.1" style="shape-rendering:geometricPrecision; text-rendering:geometricPrecision; image-rendering:optimizeQuality; fill-rule:evenodd; clip-rule:evenodd"
viewBox="0 0 677 677"
 xmlns:xlink="http://www.w3.org/1999/xlink">
 <defs>
  <style type="text/css">
   <![CDATA[
    .fil0 {fill:#333537;fill-rule:nonzero}
   ]]>
  </style>
 </defs>
 <g id="Camada_x0020_1">
  <metadata id="CorelCorpID_0Corel-Layer"/>
  <path class="fil0" d="M664 220l0 -12 -1 0 0 12 12 2c1,-8 2,-16 2,-26 0,-104 -80,-188 -179,-188 -82,0 -150,58 -171,137l12 3 11 -3c-21,-79 -89,-137 -171,-137 -99,0 -179,84 -179,188 0,10 1,18 2,26l13 -2 0 -12 -3 0c-3,0 -7,1 -9,4 -2,3 -3,6 -3,10 0,3 25,193 331,461 4,4 11,4 15,0 1,0 72,-61 148,-146 38,-43 77,-92 110,-143 32,-51 58,-104 68,-156l-12 -2 12 3c1,-3 1,-6 2,-9l0 0c0,-1 1,-4 2,-8 0,-3 -1,-7 -3,-10 -2,-3 -6,-4 -9,-4l0 12 -13 -1c0,0 0,3 -1,7l12 2 -12 -2c0,2 -1,4 -2,7l0 0c-9,47 -33,97 -64,147 -48,74 -111,145 -162,197 -26,26 -49,48 -65,63 -8,7 -15,13 -19,17 -5,4 -7,6 -7,6l8 10 8 -10c-152,-132 -232,-244 -275,-322 -21,-40 -33,-70 -40,-91 -3,-11 -5,-19 -6,-24 -1,-2 -1,-4 -1,-6l0 -1 -1 0 -1 0 1 0 0 0 -1 0 1 0 -12 1 0 13 3 0c3,0 7,-1 9,-4 2,-3 3,-7 3,-10 -1,-9 -2,-16 -2,-23 0,-45 17,-85 45,-114 28,-30 66,-48 109,-48 71,0 129,50 148,118 1,5 6,9 12,9 5,0 10,-4 11,-9 19,-68 78,-118 148,-118 43,0 82,18 110,48 27,29 45,69 45,114 0,7 -1,14 -2,23 -1,3 0,7 2,10 3,3 6,4 10,4l1 0 0 -13 -13 -1 13 1z"/>
 </g>
</svg>
