<?xml version="1.0" encoding="UTF-8"?>
<!DOCTYPE svg PUBLIC "-//W3C//DTD SVG 1.1//EN" "http://www.w3.org/Graphics/SVG/1.1/DTD/svg11.dtd">
<!-- Creator: CorelDRAW X8 -->
<svg xmlns="http://www.w3.org/2000/svg" xml:space="preserve" width="6.7732mm" height="6.7732mm" version="1.1" style="shape-rendering:geometricPrecision; text-rendering:geometricPrecision; image-rendering:optimizeQuality; fill-rule:evenodd; clip-rule:evenodd"
viewBox="0 0 677 677"
 xmlns:xlink="http://www.w3.org/1999/xlink">
 <defs>
  <style type="text/css">
   <![CDATA[
    .fil0 {fill:#333537;fill-rule:nonzero}
   ]]>
  </style>
 </defs>
 <g id="Camada_x0020_1">
  <metadata id="CorelCorpID_0Corel-Layer"/>
  <path class="fil0" d="M-4436 -965l0 -19 -2 0 0 19 19 2c1,-11 3,-24 3,-39 0,-155 -120,-281 -268,-281 -123,0 -225,87 -258,204l18 6 18 -6c-32,-117 -134,-204 -257,-204 -149,0 -269,126 -269,281 0,15 2,28 4,40l18 -3 0 -19 -3 0c-6,0 -11,2 -14,6 -4,4 -5,10 -5,15 1,5 37,290 496,691 7,6 17,6 24,1 0,-1 107,-91 221,-220 57,-64 116,-137 165,-214 49,-76 87,-156 103,-233l-18 -4 18 4c1,-4 1,-8 2,-12l0 0c0,-2 2,-6 3,-12 1,-6 -1,-12 -5,-16 -3,-4 -8,-6 -13,-6l0 19 -19 -3c0,1 -1,5 -2,11l18 3 -18 -3c-1,3 -1,6 -2,10l0 1c-14,70 -50,146 -97,220 -71,111 -166,218 -243,296 -39,39 -73,71 -97,94 -13,11 -22,20 -29,26 -7,5 -10,9 -10,9l11 15 12 -15c-227,-199 -348,-366 -412,-484 -32,-59 -50,-105 -60,-136 -4,-16 -7,-28 -9,-36 -1,-3 -1,-6 -2,-8l0 -2 0 -1 -2 1 2 -1 0 0 -2 1 2 -1 -18 3 0 19 3 0c5,0 11,-2 14,-7 4,-4 5,-9 4,-15 -1,-12 -3,-23 -3,-34 0,-67 26,-127 68,-171 42,-44 100,-72 164,-72 106,0 194,75 221,177 3,8 10,14 18,14 8,0 16,-6 18,-14 28,-102 116,-177 222,-177 64,0 121,28 163,72 42,44 68,104 68,171 0,11 -1,22 -3,34 -1,6 1,11 4,16 4,4 9,6 14,6l2 0 0 -19 -19 -3 19 3z"/>
  <path class="fil0" d="M12 14l0 14 632 0 -299 595 -56 -360c-1,-3 -2,-6 -4,-8l-265 -252 -8 11 0 14 0 -14 -8 10 261 249 61 393c1,6 5,10 11,11 5,1 10,-2 13,-7l326 -649c2,-5 2,-10 0,-14 -3,-4 -7,-7 -11,-7l-653 0c-5,0 -9,4 -11,9 -2,5 -1,11 3,15l8 -10z"/>
  <path class="fil0" d="M283 277l388 -251c6,-4 8,-13 5,-19 -4,-7 -11,-9 -17,-5l-389 251c-6,4 -8,13 -4,19 3,7 11,9 17,5z"/>
 </g>
</svg>
